<?xml version="1.0" standalone="no"?>
<!DOCTYPE svg PUBLIC "-//W3C//DTD SVG 20010904//EN"
 "http://www.w3.org/TR/2001/REC-SVG-20010904/DTD/svg10.dtd">
<svg version="1.0" xmlns="http://www.w3.org/2000/svg"
 width="1000.000000pt" height="1000.000000pt" viewBox="0 0 1000.000000 1000.000000"
 preserveAspectRatio="xMidYMid meet">
<metadata>
Created by potrace 1.14, written by Peter Selinger 2001-2017
</metadata>
<g transform="translate(0.000000,1000.000000) scale(0.100000,-0.100000)"
fill="#000000" stroke="none">
<path d="M3712 6852 c-56 -3 -63 -5 -57 -20 4 -9 15 -44 24 -77 8 -33 20 -63
26 -67 9 -7 39 -8 153 -7 18 0 34 -6 36 -13 17 -53 50 -165 52 -173 1 -6 23
-83 49 -170 26 -88 51 -173 56 -190 4 -16 20 -66 34 -110 13 -44 26 -89 28
-100 2 -11 7 -27 10 -35 3 -8 15 -49 27 -90 12 -41 27 -91 35 -111 8 -20 11
-39 8 -43 -3 -3 -1 -11 4 -18 9 -11 20 -44 28 -84 20 -92 76 -234 118 -298 30
-47 104 -109 169 -142 103 -52 108 -53 1003 -51 l830 2 3 133 c2 121 1 132
-15 133 -10 0 -386 1 -835 1 -752 1 -820 2 -856 18 -48 22 -108 91 -115 133
-6 38 -8 35 26 41 14 2 63 12 107 21 44 9 91 18 103 19 12 2 33 6 47 10 14 3
36 8 50 10 14 3 71 14 128 25 56 11 115 23 130 26 15 3 38 7 52 10 14 3 39 8
55 11 17 3 98 18 180 34 83 16 161 32 175 34 14 3 36 8 50 11 14 3 37 7 52 10
15 3 74 15 130 26 57 11 114 22 128 25 14 2 36 7 50 10 14 4 34 8 45 9 24 3
73 12 135 26 25 6 61 13 80 15 19 2 49 8 65 12 l30 8 3 342 2 342 -1069 0
c-1009 0 -1069 1 -1076 18 -4 9 -22 71 -41 137 -19 66 -37 127 -39 135 -4 13
-33 15 -177 15 -95 0 -202 -1 -236 -3z"/>
<path d="M4660 4977 c-51 -21 -98 -59 -129 -102 -18 -25 -30 -45 -26 -45 3 0
1 -9 -5 -21 -7 -11 -11 -47 -11 -79 0 -75 30 -138 89 -190 128 -113 321 -72
398 85 23 48 26 64 22 124 -7 94 -47 159 -132 211 -44 26 -162 36 -206 17z"/>
<path d="M6018 4980 c-145 -43 -223 -214 -161 -350 92 -201 366 -204 471 -5
15 28 22 148 10 185 -38 127 -192 209 -320 170z"/>
<path d="M3167 3905 c-75 -28 -129 -77 -169 -154 -18 -36 -23 -61 -23 -125 0
-71 4 -88 30 -134 54 -98 130 -143 246 -148 67 -2 84 1 135 25 33 16 67 38 78
49 18 21 18 22 -14 52 l-32 30 -31 -23 c-59 -43 -110 -52 -182 -34 -11 3 -23
6 -27 6 -3 1 -23 17 -43 37 -61 59 -78 123 -54 208 12 44 80 116 109 116 10 0
21 4 24 9 7 11 104 6 136 -7 14 -6 38 -20 55 -31 l30 -21 27 33 28 32 -24 21
c-67 63 -210 91 -299 59z"/>
<path d="M3759 3906 c-84 -29 -136 -76 -173 -156 -64 -138 -4 -310 132 -379
82 -42 235 -33 301 16 43 33 92 88 98 111 3 12 8 22 12 22 10 0 11 9 14 108 2
45 0 82 -5 82 -4 0 -8 7 -8 15 0 23 -40 88 -73 117 -74 67 -208 95 -298 64z
m177 -92 c37 -18 107 -92 99 -105 -3 -4 -1 -10 5 -14 5 -3 10 -30 10 -58 0
-108 -76 -197 -174 -205 -68 -5 -113 9 -156 51 -129 125 -47 346 128 347 30 0
69 -7 88 -16z"/>
<path d="M7125 3910 c-80 -18 -151 -73 -187 -143 -27 -54 -31 -72 -30 -147 0
-79 24 -140 76 -193 62 -63 108 -81 206 -82 93 0 140 16 195 67 l30 28 -30 29
-30 30 -44 -29 c-24 -17 -51 -31 -60 -31 -9 -1 -27 -3 -41 -5 -99 -13 -197 75
-205 184 -8 120 76 207 200 206 62 -1 94 -12 133 -48 l23 -21 30 34 29 34 -21
24 c-53 56 -179 85 -274 63z"/>
<path d="M2109 3906 c-1 -1 -2 -126 -3 -278 -1 -180 2 -279 9 -281 9 -2 329
-1 378 2 15 1 17 9 15 44 l-3 42 -145 0 c-142 0 -177 6 -164 27 4 6 6 35 5 64
-1 30 2 55 6 55 5 1 64 2 133 3 l125 1 3 42 3 42 -132 0 c-73 1 -134 3 -136 5
-5 5 -5 25 -3 92 l3 50 139 -1 c77 0 143 2 147 5 5 3 8 23 7 45 l-1 40 -192 1
c-106 0 -194 0 -194 0z"/>
<path d="M4267 3901 c-2 -5 -1 -503 2 -543 1 -13 9 -15 42 -13 22 2 43 6 46 9
3 3 5 98 5 212 -1 114 1 204 4 201 3 -2 47 -87 98 -188 88 -176 93 -184 120
-182 16 1 29 4 30 5 1 2 42 85 91 184 50 100 92 181 95 179 3 -2 5 -96 4 -209
-1 -215 -2 -208 41 -208 58 0 54 -25 52 280 l-2 277 -70 1 -70 1 -86 -175 -87
-175 -59 124 c-33 68 -61 127 -62 131 -1 4 -12 27 -25 50 l-23 43 -72 1 c-39
1 -73 -2 -74 -5z"/>
<path d="M5051 3628 c0 -173 3 -278 9 -279 6 -1 17 -1 25 -1 8 0 25 0 38 1
l23 1 -1 203 c-1 111 1 206 3 210 2 5 46 -76 98 -179 95 -190 96 -191 143
-185 4 1 50 84 100 186 51 102 95 185 97 185 2 0 4 -62 3 -137 0 -76 0 -172 0
-214 l1 -75 40 0 c23 1 44 6 48 13 4 6 7 132 7 280 l0 268 -75 0 -74 0 -18
-35 c-9 -19 -47 -98 -84 -175 l-67 -140 -69 145 c-38 80 -76 159 -84 176 -15
32 -16 32 -89 31 l-74 -1 0 -278z"/>
<path d="M5839 3901 c-3 -16 -4 -528 -1 -541 3 -13 32 -15 195 -13 106 0 195
2 198 2 11 2 16 59 8 73 -6 10 -48 13 -156 13 l-148 1 0 74 0 75 132 0 133 0
-2 42 -1 43 -134 0 -133 0 0 73 0 73 138 -1 c75 0 143 1 150 3 7 3 12 21 12
46 l0 43 -195 -1 c-107 0 -195 -2 -196 -5z"/>
<path d="M6363 3897 c-7 -12 -7 -533 0 -544 5 -7 35 -9 82 -4 7 1 10 34 9 90
-2 96 -1 99 51 96 17 -2 41 -3 55 -4 20 -1 38 -21 85 -91 33 -49 66 -90 73
-91 42 -5 122 1 105 8 -7 2 -13 9 -13 15 0 6 -10 23 -22 38 -13 15 -30 37 -38
50 -8 12 -25 36 -37 52 -23 31 -22 48 1 48 21 0 74 63 83 100 20 77 0 165 -44
200 -14 11 -44 25 -67 32 -49 14 -315 18 -323 5z m315 -98 c46 -29 35 -137
-16 -163 -16 -8 -63 -13 -118 -14 l-91 -1 1 97 c1 95 1 97 26 102 40 8 174 -6
198 -21z"/>
<path d="M7529 3895 c0 -5 -2 -129 -2 -273 -2 -226 0 -265 13 -271 11 -5 345
-7 383 -2 4 1 7 20 7 44 l0 43 -150 0 c-127 -1 -151 1 -155 14 -7 22 -4 130 4
131 3 1 62 2 131 3 l125 1 3 43 3 43 -73 -1 c-40 -1 -101 -1 -134 -1 l-62 1 1
73 0 73 146 -1 146 0 5 46 6 45 -198 0 c-130 0 -198 -4 -199 -11z"/>
<path d="M2608 3611 c-3 -9 -2 -27 2 -41 6 -25 7 -25 125 -26 66 0 125 2 130
5 6 3 10 23 10 43 l0 37 -132 -1 c-111 -1 -132 -4 -135 -17z"/>
</g>
</svg>
